<?xml version="1.0" encoding="UTF-8"?>
<svg id="Layer_1" xmlns="http://www.w3.org/2000/svg" version="1.1" viewBox="0 0 641.5 545.8">
  <!-- Generator: Adobe Illustrator 29.2.1, SVG Export Plug-In . SVG Version: 2.1.0 Build 116)  -->
  <defs>
    <style>
      .st0 {
        fill: #fefdfd;
      }

      .st1 {
        fill: #fe0015;
      }
    </style>
  </defs>
  <path class="st0" d="M246.1,131c1.4-1.1,3-2,4.3-3.3,4-4,7.9-8.1,11.7-12.3,14.6-15.9,32.6-21.5,53.6-17.6,6.6,1.2,12.8,2.2,19.2-1.5,3.7-2.1,8.1-2.9,12.3-3.8,6.1-1.3,12.2-1.4,18.7,1.5,7.1,2.1,13.5,3.9,20,5.7,1.5,1.8,3,3.5,4.7,5.6,4.2-3.6,8.3-6.9,12.1-10.6,1.1-1.1,1.4-3.2,1.5-4.9.3-7.5,4.9-12.6,12.2-13.9,1.3-.2,2.8-1.5,3.6-2.7,2.8-4.4,6.1-7.6,11.8-7.8,1.9,0,3.8-2.3,5.5-3.9,3.7-3.5,7.5-3.6,11.7-1.1,8.6,5.3,14.3,13.3,19.5,21.7,1.2,1.9,3,3.4,4.8,5.3-2.8,4.8-4.1,5.2-13.3,3.5,3.5,7.7-3.8,10.2-6.7,14.9-.7,1.1-2.1,2.1-2.2,3.1-.2,7.8-5.1,11.2-11.5,13.6-1.8.7-3.5,1.8-4.8,3.1-3.1,3.2-5.8,6.8-8.9,10.4,1.4,1.3,2.8,2.6,4.8,4.3,1.8,3.4,3.2,6.5,4.6,9.6,1.5-.4,2.9-.8,4.3-1.2,13.3-3.8,24.2,2.3,35.3,8.2,3,1.6,6.7,2.8,10.1,2.8,8.8.2,17.6-.6,26.2,2.5,2.1.8,4.9.1,7.3-.5,10.8-2.6,21.2-.7,31.2,3.4,12.1,5,24.5,8.6,37.8,7.5,5.3-.4,10.6-1.3,15.9-1.5,1.5,0,3.6,1.2,4.4,2.5,2,3.4,3.6,7.1,5.1,10.8,2.4,5.7.5,10.3-5,13.2-1.1.6-2.1,1.7-2.7,2.8-2.2,4-6.9,5.4-11,3.3-3.1-1.5-6.4-2.6-9.6-4.1-3.2-1.6-6.3-3.4-9.6-5.1-5.8,1.1-12.5,3-19.3,3.5-11.2.8-22.5.8-33.8.9-1.4,0-3.2-.3-4.2-1.2-5.3-4.3-10.6-3.1-16.7-1.4-12.3,3.5-24.9,5.9-37.9,3.7-2-.3-4.5.7-6.4,1.8-10.7,6-21.4,12.1-32.7,18.5-9.1,1.1-17.5,1.7-25.8,2.9-6,.9-12.1,2-17.6,4.4-5.5,2.5-10.4,6.5-15.3,10.2-4.4,3.2-9.4,6.2-12.5,10.5-6.8,9.4-13.2,19.2-18.5,29.4-11.1,21.5-25.7,39.4-46.6,52-2.3,1.4-4,3.9-5.9,5.9-8.1,8.7-16.2,17.5-24.3,26.3-11.9,6-23.9,11.7-37.2,14-8,1.4-15.9,3.3-23.9,4.6-11.2,1.8-17.9,9.5-24.1,17.9-3.7,5-7.1,10.1-10.9,14.9-3.4,4.3-5.6,4.2-9-.1-4.2-5.2-6.6-11.2-6.8-17.9-.2-4.6,0-9.3.5-13.9,1.6-13.7.6-12.7,13.3-14.4,17.1-2.2,30.9-10.7,45.3-18.5,2.1-1.1,3.6-3.4,5.4-5.1,3.9-3.6,7.8-7.2,12.2-11.2,7.5-2.8,14.3-5.4,21.2-7.5,2.9-.9,5-1.8,6.4-4.7,8.6-17.8,17.5-35.5,26.2-53.3.6-1.2.7-2.7,1.2-3.9.3,0,.3-.3.4-.6-.2.2-.4.4-.9.5-18.2,10.5-35.8,21.3-53.8,31.6-8.8,5-18.2,9.1-27.4,13.6-2,.6-4.3.7-6,1.7-14.2,8-28.9,11.5-44.9,6.2-13-4.3-26.2-1.5-39,.3-4.9.7-9.1,7.7-13.3,12.2-4.2,4.5-7.8,9.6-11.8,14.2-3.6,4-6,3.8-9-.6-5.3-7.5-6.4-15.9-5.5-24.8.2-2.3.7-4.6,1.1-6.9,2.1-12.5,3.5-13.6,16.3-14.7,14.8-1.2,29.7-3.1,43.3-9.3,10.4-4.8,21-8.3,33-10,9.4-1.4,18-1.7,26.5.7,1.9.5,5.1-.3,6.4-1.7,7.3-7.6,15.9-13.9,20.7-24,3.4-7.1,8.6-13.5,13.9-19.4,12.7-14.2,28.8-24,45.7-32.4,3.7-1.8,7.1-4.2,10.2-6.9,8.2-6.8,11.2-17.2,16.9-25.7,6.4-9.5,6.4-20.3,8.7-30.2-5-3.7-8.7-1.9-13.1.7-13.8,8.4-29.2,12.9-43.7,16.6-2.1,3.1-3.8,5.9-5.8,8.4-2.2,2.9-4.8,5.5-7,8.4-2.8,3.7-7.5,4.6-11.3,2-1.1-.7-2.5-1.2-3.7-1.3-6-.1-9.7-3.2-10.3-9.2-.3-3.3,0-6.7-.5-10-.6-4.2,1.1-6,4.9-7.7,9.5-4.2,18.7-9.1,28-13.8h0Z"/>
  <path class="st1" d="M257.7,362.5c7.8-9,15.9-17.8,24-26.5,1.9-2,3.6-4.5,5.9-5.9,20.9-12.6,35.5-30.5,46.6-52,5.3-10.3,11.7-20,18.5-29.4,3.1-4.3,8.1-7.3,12.5-10.5,4.9-3.7,9.8-7.7,15.3-10.2,5.4-2.4,11.6-3.5,17.6-4.4,8.3-1.3,16.8-1.8,25.6-2.7-2.7,15.6-7,31.2-8.5,47-1.8,18.8-2,37.9-1.4,56.8.6,20.8,3.6,41.5,4.1,62.3.5,22.7-1.2,45.3-11.3,66.3-2.1,4.3-4.4,8.4-7.2,13.7-.9-2.8-1.6-4.5-2-6.2-2.8-13.2-10.6-23.6-19.3-33.3-8.2-9.1-18.7-12.6-30.8-10.2-22.1,4.5-38-5.2-51-21.8-3.6-4.6-6.7-9.6-9.7-14.5-3.8-6.2-9.5-9.5-16.1-11.9-4.3-1.6-8.3-4-12.7-6.4h0Z"/>
  <path class="st1" d="M245.7,130.9c-8.9,4.7-18.1,9.6-27.6,13.8-3.8,1.7-5.5,3.5-4.9,7.7.5,3.3.2,6.7.5,10,.6,6,4.3,9.1,10.3,9.2,1.3,0,2.7.6,3.7,1.3,3.9,2.6,8.5,1.8,11.3-2,2.2-2.9,4.8-5.5,7-8.4,2-2.6,3.7-5.3,5.8-8.4,14.5-3.6,29.9-8.2,43.7-16.6,4.3-2.6,8-4.4,13.1-.7-2.3,9.9-2.3,20.8-8.7,30.2-5.8,8.5-8.7,18.9-16.9,25.7-3.2,2.6-6.6,5-10.2,6.9-16.9,8.5-33,18.2-45.7,32.4-5.3,5.9-10.5,12.3-13.9,19.4-4.8,10.1-13.4,16.4-20.7,24-1.3,1.4-4.5,2.2-6.4,1.7-8.6-2.4-17.1-2.1-26.2-.9-5.8-5.1-8.5-11.3-9-18.6-.7-10.2-5.6-17.6-15-21.8-12.8-5.6-21.5-15.3-27.6-27.7-2.9-5.9-4-11.9-2.6-18.4.6-2.9,1.2-5.9,1.2-8.9.2-9.8-3.2-18-12.3-22.8-6.9-3.7-13.8-7.2-22.2-11.6,6.7-4.5,12.3-8.9,18.4-12.3,22.7-12.6,47.2-12.4,72-9.6,18.8,2.1,37.6,5.1,56.4,7,8.5.8,17.3-.3,26.4-.5h0Z"/>
  <path class="st1" d="M195.7,308.4c9-4.8,18.4-8.9,27.2-13.9,18-10.3,35.7-21,53.8-31.6.3,0,.3,0,.3,0-.3,1.3-.4,2.8-1,4-8.7,17.8-17.5,35.5-26.2,53.3-1.4,2.9-3.5,3.9-6.4,4.7-7,2.1-13.8,4.8-21,7.3-9.1-7.8-17.8-15.6-26.8-23.8h0Z"/>
  <path class="st1" d="M385.9,99.4c-6.5-1.5-12.9-3.3-19.7-5.4,8.5-4.4,16.7-2.3,19.7,5.4Z"/>
  <path class="st1" d="M439.4,148.4c-1.3.8-2.7,1.1-4.3,1.6-1.4-3.2-2.7-6.2-4.2-9.6,4.4.5,6.9,3.6,8.5,8h0Z"/>
  <path class="st1" d="M277.1,263c.2-.2.4-.4.5-.5,0,.2-.2.5-.4.6-.2-.2-.1,0-.1,0h0Z"/>
</svg>