<?xml version="1.0" encoding="UTF-8"?>
<svg id="Layer_1" data-name="Layer 1" xmlns="http://www.w3.org/2000/svg" viewBox="0 0 1920 1080">
  <defs>
    <style>
      .cls-1 {
        fill: #fefdfd;
      }

      .cls-2 {
        fill: #fe0015;
      }
    </style>
  </defs>
  <path class="cls-1" d="M929,433.04c1.43-1.1,3.01-2.04,4.26-3.31,3.96-4.03,7.86-8.13,11.68-12.29,14.59-15.91,32.6-21.46,53.62-17.6,6.6,1.21,12.84,2.16,19.22-1.51,3.65-2.09,8.12-2.93,12.32-3.84,6.08-1.31,12.19-1.37,18.71,1.55,7.1,2.06,13.53,3.89,19.97,5.72,1.49,1.77,2.99,3.55,4.74,5.63,4.15-3.59,8.28-6.89,12.05-10.58,1.08-1.06,1.44-3.19,1.51-4.86.33-7.46,4.88-12.61,12.18-13.92,1.35-.24,2.84-1.53,3.62-2.74,2.82-4.41,6.05-7.61,11.83-7.84,1.88-.08,3.84-2.33,5.47-3.89,3.68-3.55,7.52-3.64,11.68-1.07,8.61,5.32,14.27,13.26,19.48,21.66,1.18,1.9,3.02,3.38,4.77,5.28-2.78,4.8-4.07,5.24-13.29,3.51,3.46,7.7-3.84,10.19-6.7,14.94-.66,1.09-2.13,2.06-2.16,3.11-.16,7.75-5.11,11.19-11.51,13.63-1.75.67-3.52,1.75-4.8,3.11-3.05,3.24-5.81,6.76-8.91,10.43,1.42,1.31,2.83,2.62,4.75,4.3,1.84,3.42,3.18,6.47,4.57,9.63,1.54-.44,2.94-.84,4.33-1.23,13.28-3.79,24.2,2.27,35.28,8.17,3.04,1.62,6.71,2.75,10.13,2.84,8.79.24,17.59-.63,26.17,2.5,2.11.77,4.95.11,7.32-.46,10.83-2.61,21.16-.71,31.18,3.41,12.12,4.99,24.48,8.58,37.77,7.48,5.3-.44,10.58-1.27,15.89-1.45,1.49-.05,3.64,1.22,4.42,2.52,2.04,3.41,3.6,7.12,5.14,10.8,2.38,5.67.48,10.3-5,13.22-1.09.58-2.07,1.71-2.68,2.82-2.21,3.98-6.87,5.36-11.02,3.33-3.12-1.53-6.45-2.64-9.58-4.15-3.23-1.56-6.33-3.38-9.61-5.14-5.81,1.1-12.52,3.01-19.33,3.5-11.23.81-22.52.75-33.79.92-1.41.02-3.16-.33-4.21-1.18-5.33-4.34-10.59-3.08-16.67-1.36-12.31,3.48-24.89,5.86-37.89,3.67-1.99-.33-4.48.72-6.39,1.78-10.73,5.97-21.36,12.15-32.69,18.49-9.07,1.1-17.51,1.65-25.84,2.92-5.96.91-12.12,1.99-17.56,4.42-5.52,2.46-10.39,6.5-15.32,10.15-4.39,3.25-9.4,6.25-12.49,10.54-6.76,9.39-13.17,19.16-18.46,29.43-11.07,21.49-25.74,39.43-46.61,52.04-2.31,1.4-4,3.86-5.9,5.91-8.12,8.74-16.21,17.5-24.31,26.26-11.89,5.98-23.86,11.71-37.18,13.96-8.01,1.36-15.92,3.33-23.94,4.64-11.2,1.82-17.87,9.49-24.08,17.89-3.66,4.95-7.1,10.07-10.89,14.91-3.36,4.31-5.57,4.17-9-.14-4.17-5.23-6.62-11.19-6.84-17.86-.15-4.64.02-9.32.55-13.93,1.56-13.65.64-12.74,13.34-14.39,17.14-2.23,30.86-10.74,45.26-18.5,2.1-1.13,3.58-3.41,5.39-5.11,3.86-3.64,7.75-7.24,12.2-11.19,7.46-2.75,14.28-5.37,21.25-7.5,2.86-.87,4.96-1.84,6.37-4.74,8.64-17.81,17.48-35.53,26.19-53.31.59-1.21.66-2.69,1.15-3.89.26-.1.35-.35.43-.6-.18.19-.36.39-.89.53-18.16,10.52-35.83,21.31-53.81,31.57-8.84,5.05-18.25,9.12-27.4,13.63-2.03.56-4.27.73-6.05,1.74-14.18,8.05-28.88,11.54-44.93,6.19-12.97-4.32-26.24-1.53-39.05.3-4.93.7-9.14,7.67-13.29,12.15-4.18,4.51-7.75,9.58-11.83,14.19-3.59,4.05-5.95,3.75-9.05-.62-5.32-7.49-6.37-15.93-5.5-24.77.23-2.32.71-4.61,1.1-6.91,2.12-12.5,3.46-13.64,16.34-14.67,14.83-1.18,29.7-3.1,43.27-9.28,10.44-4.76,20.99-8.29,33.05-10.04,9.41-1.41,17.95-1.72,26.52.71,1.88.53,5.08-.31,6.42-1.72,7.27-7.62,15.87-13.91,20.66-24,3.37-7.09,8.6-13.52,13.89-19.44,12.72-14.24,28.78-23.98,45.73-32.44,3.65-1.82,7.1-4.24,10.25-6.85,8.23-6.81,11.17-17.19,16.92-25.68,6.41-9.45,6.37-20.3,8.72-30.21-5.03-3.69-8.74-1.91-13.07.71-13.85,8.4-29.21,12.92-43.74,16.56-2.12,3.08-3.85,5.85-5.84,8.42-2.23,2.89-4.82,5.5-7.04,8.41-2.85,3.73-7.45,4.56-11.35,1.98-1.07-.71-2.47-1.25-3.74-1.28-5.97-.13-9.68-3.25-10.28-9.2-.33-3.31,0-6.7-.48-9.97-.61-4.2,1.14-5.99,4.89-7.67,9.5-4.25,18.72-9.13,28.05-13.75Z"/>
  <path class="cls-2" d="M940.63,664.51c7.82-9.05,15.91-17.82,24.03-26.55,1.9-2.04,3.59-4.51,5.9-5.91,20.87-12.61,35.54-30.55,46.61-52.04,5.29-10.27,11.7-20.04,18.46-29.43,3.09-4.29,8.1-7.29,12.49-10.54,4.93-3.65,9.8-7.69,15.32-10.15,5.44-2.42,11.6-3.51,17.56-4.42,8.33-1.27,16.77-1.82,25.57-2.7-2.68,15.64-7.01,31.18-8.53,46.99-1.81,18.81-1.97,37.87-1.43,56.77.59,20.78,3.62,41.5,4.07,62.28.5,22.69-1.23,45.33-11.35,66.35-2.07,4.29-4.41,8.43-7.17,13.68-.93-2.85-1.63-4.48-1.99-6.19-2.77-13.23-10.6-23.61-19.31-33.3-8.15-9.08-18.66-12.63-30.77-10.18-22.08,4.47-38.03-5.23-50.95-21.85-3.57-4.59-6.65-9.58-9.69-14.54-3.79-6.19-9.49-9.45-16.09-11.88-4.32-1.59-8.32-4.03-12.74-6.39Z"/>
  <path class="cls-2" d="M928.55,432.98c-8.88,4.68-18.1,9.56-27.6,13.81-3.75,1.68-5.51,3.48-4.89,7.67.48,3.28.15,6.66.48,9.97.6,5.95,4.31,9.06,10.28,9.2,1.26.03,2.67.57,3.74,1.28,3.91,2.58,8.5,1.75,11.35-1.98,2.22-2.9,4.81-5.52,7.04-8.41,1.99-2.57,3.72-5.34,5.84-8.42,14.53-3.64,29.9-8.16,43.74-16.56,4.33-2.63,8.04-4.4,13.07-.71-2.35,9.92-2.31,20.76-8.72,30.21-5.75,8.48-8.69,18.86-16.92,25.68-3.15,2.61-6.6,5.02-10.25,6.85-16.94,8.46-33,18.2-45.73,32.44-5.29,5.92-10.53,12.35-13.89,19.44-4.79,10.09-13.39,16.37-20.66,24-1.34,1.4-4.54,2.25-6.42,1.72-8.57-2.43-17.11-2.12-26.16-.93-5.76-5.1-8.51-11.34-8.99-18.63-.67-10.24-5.56-17.62-15.01-21.78-12.83-5.64-21.55-15.3-27.64-27.67-2.89-5.87-3.99-11.92-2.6-18.4.62-2.92,1.21-5.92,1.25-8.89.15-9.83-3.16-17.96-12.29-22.84-6.86-3.67-13.78-7.23-22.24-11.65,6.72-4.52,12.29-8.86,18.39-12.26,22.68-12.65,47.25-12.43,72.01-9.63,18.84,2.13,37.58,5.13,56.44,6.95,8.54.82,17.27-.28,26.36-.45Z"/>
  <path class="cls-2" d="M878.63,610.48c8.97-4.82,18.37-8.89,27.22-13.93,17.98-10.26,35.65-21.04,53.79-31.6.34.02.3-.05.3-.05-.31,1.35-.38,2.83-.97,4.04-8.71,17.78-17.55,35.5-26.19,53.31-1.4,2.9-3.5,3.86-6.37,4.74-6.97,2.13-13.79,4.75-21.04,7.26-9.1-7.76-17.83-15.62-26.75-23.77Z"/>
  <path class="cls-2" d="M1068.84,401.42c-6.51-1.49-12.94-3.32-19.68-5.36,8.54-4.39,16.71-2.26,19.68,5.36Z"/>
  <path class="cls-2" d="M1122.33,450.47c-1.33.76-2.73,1.15-4.27,1.59-1.39-3.16-2.73-6.21-4.24-9.58,4.42.46,6.86,3.58,8.5,7.99Z"/>
  <path class="cls-2" d="M960,565c.2-.16.38-.36.55-.55-.08.25-.17.5-.43.6-.18-.15-.14-.09-.12-.06Z"/>
</svg>